<?xml version="1.0" encoding="UTF-8"?>
<svg version="1.1" xmlns="http://www.w3.org/2000/svg" width="512" height="512">
<path d="M0 0 C7.09382485 3.39007616 13.03156708 9.1507796 18.99169922 14.18896484 C21.7088419 16.45609142 24.49803609 18.60446051 27.3125 20.75 C28.33601562 21.53117187 29.35953125 22.31234375 30.4140625 23.1171875 C30.96094727 23.53452148 31.50783203 23.95185547 32.07128906 24.38183594 C35.95760165 27.36113889 39.82141733 30.36952574 43.6875 33.375 C44.48720215 33.99560303 45.2869043 34.61620605 46.11083984 35.25561523 C46.85285645 35.83255127 47.59487305 36.4094873 48.359375 37.00390625 C49.35855957 37.78036499 49.35855957 37.78036499 50.37792969 38.57250977 C51.9375 39.8125 51.9375 39.8125 52.9375 40.8125 C52.96328125 39.7503125 52.9890625 38.688125 53.015625 37.59375 C53.59869026 21.15130974 53.59869026 21.15130974 60.3125 14.4375 C67.58133334 9.93774603 75.04075321 10.47944397 83.3125 10.5 C84.6015625 10.48388672 85.890625 10.46777344 87.21875 10.45117188 C102.16089714 10.44350137 102.16089714 10.44350137 107.44628906 15.15844727 C111.92040872 20.16584744 113.19052473 24.67073155 113.16455078 31.25512695 C113.16439972 32.53607742 113.16424866 33.81702789 113.16409302 35.13679504 C113.1538813 36.52479205 113.14344933 37.91278744 113.1328125 39.30078125 C113.1290795 40.72852887 113.12623388 42.15627905 113.12423706 43.58403015 C113.11662318 47.33068999 113.09699419 51.07719326 113.0748291 54.8237915 C113.05432214 58.65138634 113.045225 62.47900662 113.03515625 66.30664062 C113.01374599 73.8086649 112.97963741 81.31056046 112.9375 88.8125 C113.55863678 89.11491104 114.17977356 89.41732208 114.81973267 89.72889709 C117.02918886 90.85941465 118.82331881 92.15135764 120.7734375 93.68359375 C121.50079102 94.25231201 122.22814453 94.82103027 122.97753906 95.40698242 C123.74807617 96.01517822 124.51861328 96.62337402 125.3125 97.25 C126.11397461 97.87817627 126.91544922 98.50635254 127.74121094 99.15356445 C130.14248931 101.03669989 132.54018544 102.92432261 134.9375 104.8125 C136.2054577 105.80763765 137.47366268 106.80246037 138.7421875 107.796875 C141.58120422 110.02345374 144.41715622 112.2538921 147.25195312 114.48583984 C149.56032587 116.30271376 151.87024728 118.11761106 154.18066406 119.93188477 C155.3448446 120.84675982 156.50826625 121.76260144 157.67089844 122.67944336 C160.67036233 125.04297702 163.68250606 127.38697587 166.71875 129.703125 C184.04525007 142.97678752 184.04525007 142.97678752 185.9375 151.8125 C187.16380041 164.36315483 184.58652713 172.1711348 176.73828125 181.80078125 C171.96279922 187.13564729 167.2044465 190.8242626 159.9375 191.5 C159.091875 191.58636719 158.24625 191.67273438 157.375 191.76171875 C154.99414336 191.81131993 153.2169527 191.43326533 150.9375 190.8125 C150.93972061 191.4366832 150.94194122 192.06086639 150.94422913 192.70396423 C150.9662808 199.17592804 150.9814061 205.64788125 150.99243164 212.11987305 C150.99747349 214.53817172 151.00430678 216.95646733 151.01293945 219.37475586 C151.02501157 222.84229283 151.03072963 226.30978966 151.03515625 229.77734375 C151.04031754 230.86587143 151.04547882 231.95439911 151.05079651 233.07591248 C151.05090981 234.57735558 151.05090981 234.57735558 151.05102539 236.10913086 C151.053246 236.99515488 151.05546661 237.88117889 151.05775452 238.79405212 C150.9375 240.8125 150.9375 240.8125 149.9375 241.8125 C146.54731197 242.28740845 143.14920738 242.64954796 139.74609375 243.01953125 C135.29325511 243.63727966 130.98727489 244.75384856 126.63696289 245.86206055 C125.89553291 246.04926414 125.15410294 246.23646774 124.39020538 246.42934418 C122.57219256 246.88864078 120.75478464 247.35033061 118.9375 247.8125 C118.96050171 246.83912186 118.98350342 245.86574371 119.00720215 244.86286926 C119.21451623 235.63991199 119.33582535 226.41918863 119.37534332 217.19394398 C119.39835777 212.45171527 119.45047611 207.71371413 119.57177734 202.97290039 C121.31885164 181.68601433 121.31885164 181.68601433 114.49755859 162.53442383 C111.29440081 159.58404417 107.88851074 157.54638087 103.92707825 155.77166748 C100.75800341 154.24386955 98.27638963 152.10354803 95.5625 149.875 C93.95724381 148.64967434 92.35198239 147.42435551 90.74658203 146.19921875 C79.96846389 137.93744938 69.29293666 129.53998645 58.62304688 121.13916016 C55.72941177 118.86163797 52.83333448 116.58722459 49.9375 114.3125 C46.48322649 111.59911257 43.02933952 108.88524646 39.578125 106.16796875 C36.68594723 103.8913615 33.7911614 101.6181074 30.89453125 99.34716797 C29.50599663 98.25830461 28.11803405 97.1687116 26.73046875 96.07861328 C6.80875441 78.6416396 6.80875441 78.6416396 -18.0625 73.8125 C-26.79524203 75.00720738 -32.76218074 79.97894412 -39.34619141 85.40673828 C-41.61957448 87.26877807 -43.93352993 89.07608037 -46.25 90.8840332 C-48.01818658 92.26419558 -49.7812805 93.65061739 -51.54296875 95.0390625 C-52.12739746 95.49958008 -52.71182617 95.96009766 -53.31396484 96.43457031 C-53.89098145 96.88928711 -54.46799805 97.34400391 -55.0625 97.8125 C-63.47952036 104.44202832 -71.92011347 111.04011923 -80.38085938 117.61376953 C-86.73033028 122.54908931 -93.05841836 127.51100748 -99.37695312 132.48583984 C-102.27058827 134.76336206 -105.16669323 137.03774007 -108.0625 139.3125 C-109.22917796 140.2291523 -110.39584464 141.14581895 -111.5625 142.0625 C-113.89583333 143.89583333 -116.22916667 145.72916667 -118.5625 147.5625 C-119.1409668 148.01713623 -119.71943359 148.47177246 -120.31542969 148.94018555 C-121.47183309 149.84853428 -122.62872729 150.75625858 -123.78613281 151.66333008 C-126.86432663 154.07713113 -129.93105725 156.50400254 -132.984375 158.94921875 C-133.62503906 159.4596875 -134.26570313 159.97015625 -134.92578125 160.49609375 C-136.16069482 161.48044515 -137.3925976 162.46858856 -138.62109375 163.4609375 C-142.8375756 166.8125 -142.8375756 166.8125 -145.0625 166.8125 C-145.02531206 190.51739346 -144.96541985 214.22213585 -144.87859726 237.92690182 C-144.83881048 248.93377358 -144.80641611 259.94057388 -144.79150391 270.94750977 C-144.77848556 280.54264604 -144.75151611 290.13762505 -144.70788693 299.73267275 C-144.68527637 304.81185342 -144.66958909 309.89084015 -144.67061615 314.97007561 C-144.67136299 319.75458583 -144.6534023 324.53866741 -144.62133217 329.32306671 C-144.61284041 331.07534136 -144.61107831 332.82766412 -144.61669731 334.57995033 C-144.72742547 349.35510738 -144.72742547 349.35510738 -137.3125 361.6875 C-128.91413673 367.17873752 -121.29215969 367.27962492 -111.5 367.32421875 C-110.09894258 367.34109005 -108.69790007 367.35924354 -107.296875 367.37861633 C-103.63422304 367.42585717 -99.97163154 367.45583308 -96.30877686 367.48205566 C-92.56119855 367.51199312 -88.81382811 367.55847765 -85.06640625 367.60351562 C-77.73187458 367.68925323 -70.3973273 367.75672858 -63.0625 367.8125 C-63.07249275 365.92354507 -63.07249275 365.92354507 -63.08268738 363.99642944 C-63.14372077 352.08074048 -63.18857891 340.16508359 -63.21793652 328.2492733 C-63.23353733 322.12444883 -63.2546729 315.99975139 -63.28881836 309.875 C-63.32161178 303.95516348 -63.33939493 298.03544851 -63.34713173 292.11552811 C-63.35263955 289.86629958 -63.36339414 287.61707708 -63.37969017 285.36790085 C-63.52202299 264.89352603 -62.45275822 246.66869711 -47.4765625 231.06640625 C-37.16782024 221.44157732 -25.22120694 216.42675959 -11.09375 216.59765625 C2.88191921 217.58819981 14.49834001 223.59599742 23.9375 233.8125 C30.5852271 242.40497327 36.07063761 253.31415144 36.05775452 264.39361572 C36.05981651 265.76495667 36.05981651 265.76495667 36.06192017 267.16400146 C36.05832489 268.15950012 36.05472961 269.15499878 36.05102539 270.18066406 C36.05117142 271.23463379 36.05131744 272.28860352 36.0514679 273.37451172 C36.0507711 276.8590704 36.04298953 280.34357566 36.03515625 283.828125 C36.03329124 286.24379446 36.03186773 288.6594643 36.03086853 291.07513428 C36.02704986 297.43405196 36.01722508 303.79294681 36.00616455 310.15185547 C35.99593649 316.64029634 35.99136791 323.12874089 35.98632812 329.6171875 C35.97560226 342.34896998 35.95801068 355.08072952 35.9375 367.8125 C42.5375 367.8125 49.1375 367.8125 55.9375 367.8125 C57.175 371.834375 57.175 371.834375 58.4375 375.9375 C60.90804412 383.65072759 64.1482392 390.31077466 68.3984375 397.1875 C69.9375 399.8125 69.9375 399.8125 69.9375 401.8125 C43.82452618 401.90606309 17.71157759 401.9765379 -8.40153027 402.01974869 C-20.52710267 402.04034811 -32.65257074 402.06841864 -44.77807617 402.11425781 C-55.35028239 402.15420575 -65.92241302 402.17995185 -76.49469262 402.18885398 C-82.08936792 402.19405523 -87.68382703 402.20622547 -93.27843285 402.23542023 C-98.55203803 402.26271505 -103.82533944 402.27091666 -109.09900856 402.26493073 C-111.02702107 402.26602469 -112.95504451 402.27389423 -114.88299561 402.2893219 C-132.86300622 402.42605544 -147.45902379 399.35302975 -161.18359375 386.79296875 C-176.02384342 371.15054342 -178.22902768 353.02917736 -178.17602539 332.37866211 C-178.1757429 330.83055625 -178.17590246 329.28245026 -178.1764679 327.73434448 C-178.17675347 323.55524676 -178.17089566 319.37617806 -178.16389394 315.19708705 C-178.15762032 310.82089178 -178.15705344 306.44469577 -178.15586853 302.0684967 C-178.152767 293.7920785 -178.14456955 285.51567358 -178.13451904 277.23926121 C-178.12332124 267.81238967 -178.11783823 258.38551748 -178.11282361 248.95864093 C-178.10238591 229.57658643 -178.08480937 210.19454429 -178.0625 190.8125 C-179.32562012 190.98539551 -180.58874023 191.15829102 -181.89013672 191.33642578 C-185.30249891 191.80350891 -187.85805655 191.73138491 -191.1875 190.6875 C-191.97382813 190.45804688 -192.76015625 190.22859375 -193.5703125 189.9921875 C-199.73267338 187.0752079 -203.30368736 182.57360671 -206.8125 176.9375 C-207.39064453 176.05771484 -207.39064453 176.05771484 -207.98046875 175.16015625 C-211.92966085 168.94257007 -214.12170952 162.23988385 -213.0625 154.8125 C-210.25968009 144.54030949 -205.73090633 139.02387258 -197.3125 132.8125 C-191.38155367 128.36173711 -185.54417681 123.82981551 -179.8125 119.125 C-174.03776001 114.39407416 -168.18796829 109.78651075 -162.25390625 105.2578125 C-158.9361898 102.72391293 -155.65358534 100.14673081 -152.375 97.5625 C-146.95383229 93.2913233 -141.51300885 89.0461671 -136.0625 84.8125 C-128.93912651 79.27810019 -121.83553237 73.71941785 -114.74804688 68.13916016 C-111.85441173 65.86163794 -108.95830677 63.58725993 -106.0625 61.3125 C-104.89582204 60.3958477 -103.72915536 59.47918105 -102.5625 58.5625 C-95.5625 53.0625 -88.5625 47.5625 -81.5625 42.0625 C-80.98532227 41.6089917 -80.40814453 41.1554834 -79.81347656 40.68823242 C-78.64359984 39.76906687 -77.47367777 38.84995905 -76.30371094 37.9309082 C-73.43578843 35.67793906 -70.5685901 33.42406277 -67.703125 31.16796875 C-64.81094723 28.8913615 -61.9161614 26.6181074 -59.01953125 24.34716797 C-57.63099663 23.25830461 -56.24303405 22.1687116 -54.85546875 21.07861328 C-19.84053041 -6.41105575 -19.84053041 -6.41105575 0 0 Z " fill="#2E3842" transform="translate(220.0625,20.1875)"/>
<path d="M0 0 C25.40321192 -0.8397756 48.49675115 8.22039706 67.32421875 25.12109375 C84.37536852 41.17387112 94.63783992 63.97847396 95.68359375 87.34765625 C96.18320255 105.19221084 92.64805472 122.24281628 83.85498047 137.89477539 C83.40621552 138.69565079 82.95745056 139.49652618 82.49508667 140.32167053 C82.15381744 140.92708176 81.81254822 141.53249298 81.4609375 142.15625 C82.35296623 143.03828598 82.35296623 143.03828598 83.26301575 143.93814087 C88.87648362 149.49140234 94.48263547 155.05192501 100.08076954 160.62064552 C102.95881876 163.48306442 105.83958068 166.34263605 108.72680664 169.19580078 C111.51502562 171.9513326 114.2957701 174.71420979 117.07156944 177.48225021 C118.12984125 178.53499531 119.19074245 179.58510427 120.25434303 180.63246536 C121.74806065 182.10428449 123.23200156 183.58535234 124.71411133 185.06884766 C125.98319084 186.32793442 125.98319084 186.32793442 127.27790833 187.61245728 C132.06177821 193.18690105 133.65593145 198.9300037 133.4609375 206.15625 C131.6375723 212.01021197 128.94396405 216.35605575 123.9609375 219.96875 C117.83723505 222.04643476 111.42278464 222.49920082 105.45263672 219.79223633 C99.67172686 216.36560609 95.17609197 211.23892392 90.49609375 206.484375 C89.45300639 205.43568386 88.40924835 204.38765942 87.36485291 203.340271 C84.63414407 200.59817501 81.9125703 197.84718747 79.19287109 195.09417725 C76.40948678 192.27995915 73.61745963 189.47434408 70.82617188 186.66796875 C65.36265244 181.17239349 59.90876558 175.66738541 54.4609375 170.15625 C51.04858934 171.49307606 47.78078086 172.97789862 44.50292969 174.61865234 C22.42075849 185.48531321 -2.43554108 187.05011186 -25.8515625 179.40625 C-49.50039094 171.21656819 -67.89341251 154.76448892 -79.359375 132.64453125 C-80.92703427 129.19016648 -82.27708812 125.73315862 -83.5390625 122.15625 C-83.9515625 121.01800781 -84.3640625 119.87976563 -84.7890625 118.70703125 C-91.83232052 95.69416391 -88.74700957 69.9216759 -77.75927734 48.73291016 C-66.07492495 27.44394446 -46.80082044 10.71679432 -23.34765625 3.87109375 C-15.60759664 1.77848091 -7.99146242 0.4917823 0 0 Z M-47.66796875 52.69921875 C-58.76514589 67.77508143 -62.44190819 85.173483 -60.10546875 103.5703125 C-56.97255476 119.56568704 -47.76740749 134.54554137 -34.5390625 144.15625 C-18.57180888 154.83472935 -2.15111698 158.17536097 16.84375 155.71875 C34.81449792 151.88499044 49.41401859 140.27335822 59.4609375 125.15625 C67.9334226 109.9190844 70.29455533 93.15004843 66.4609375 76.15625 C61.24292547 58.55307322 50.09546388 43.5218312 33.87133789 34.6887207 C5.39546275 20.30958364 -27.51306354 28.62427693 -47.66796875 52.69921875 Z " fill="#216FAA" transform="translate(371.5390625,271.84375)"/>
</svg>
